#!OML:ASF E:\emotionWalksFemale\Project 1\Capture day 1\Session 1\Female1.ASF
:FULLY-SPECIFIED
:DEGREES
22
root 7.84317 15.0693 42.0529 -178.64 1.95275 -179.795
lowerback 6.77273 1.34115 0.16549
upperback -3.6037 1.85607 -0.0648039
thorax -7.57789 0.918784 -0.40889
lowerneck -3.9549 -1.9993 -5.40899
upperneck 6.13176 -2.73079 5.00471
head 2.8439 -1.35764 2.49587
rclavicle -8.0632e-015 -8.69683e-016
rhumerus -42.3745 8.44765 -92.222
rradius 35.7569
rwrist 15.4231
rhand 0.165895 -54.9534
rfingers 7.12502
rthumb 25.7493 -83.2312
lclavicle -8.0632e-015 -8.69683e-016
lhumerus -49.1387 -3.55491 90.8602
lradius 38.2484
lwrist -7.77835
lhand -5.68283 -34.3929
lfingers 7.12502
lthumb 20.1372 -5.41652
rfemur -11.6091 9.28127 22.5174
rtibia 34.8098
rfoot -28.6998 -22.3114
rtoes 11.6947
lfemur -8.68155 -19.9609 -28.4058
ltibia 28.5378
lfoot -28.4736 21.213
ltoes -11.5213
23
root 7.82403 15.067 42.0456 -178.615 1.867 -179.993
lowerback 6.92687 1.28994 0.0573177
upperback -3.62809 1.77378 -0.104048
thorax -7.69608 0.882021 -0.383159
lowerneck -4.01345 -2.02698 -5.38539
upperneck 6.0193 -2.74969 4.89337
head 2.81453 -1.36642 2.45191
rclavicle -1.60542e-014 -6.33626e-016
rhumerus -42.3223 8.1063 -91.8862
rradius 35.7677
rwrist 15.573
rhand -0.664383 -54.7615
rfingers 7.12502
rthumb 24.9539 -83.1522
lclavicle -1.60542e-014 -6.33626e-016
lhumerus -49.4819 -3.60666 91.0861
lradius 38.5453
lwrist -6.50429
lhand -6.10539 -34.0377
lfingers 7.12502
lthumb 19.731 -5.01915
rfemur -12.1862 8.55693 22.1452
rtibia 35.8611
rfoot -28.8096 -21.59
rtoes 12.8243
lfemur -8.48934 -20.0221 -28.7117
ltibia 28.1817
lfoot -28.3119 20.9432
ltoes -10.3891
24
root 7.80545 15.0632 42.04 -178.596 2.09257 -180.299
lowerback 7.10256 1.34997 -0.21915
upperback -3.67647 1.82415 -0.134916
thorax -7.85783 0.919543 -0.273196
lowerneck -3.91598 -2.00511 -5.6587
upperneck 5.99748 -2.71241 4.9797
head 2.79562 -1.35278 2.53369
rclavicle 1.00569e-014 1.09953e-015
rhumerus -42.4085 7.92551 -91.5754
rradius 35.7884
rwrist 15.413
rhand -1.62562 -55.5444
rfingers 7.12502
rthumb 24.0324 -84.0598
lclavicle 1.00569e-014 1.09953e-015
lhumerus -49.6877 -3.24887 90.9553
lradius 38.7166
lwrist -5.12608
lhand -6.428 -33.5967
lfingers 7.12502
lthumb 19.4209 -4.54654
rfemur -12.8601 8.0993 21.6496
rtibia 36.9832
rfoot -27.8066 -21.3118
rtoes 10.4858
lfemur -8.28406 -19.8946 -29.156
ltibia 27.7651
lfoot -28.0607 21.127
ltoes -10.8879
25
root 7.78817 15.0618 42.031 -178.758 1.75434 -180.592
lowerback 7.32212 1.27014 -0.416918
upperback -3.61703 1.68476 -0.226896
thorax -7.92481 0.856917 -0.244254
lowerneck -3.8811 -1.96745 -5.61964
upperneck 5.93015 -2.65817 4.92136
head 2.76055 -1.326 2.50817
rclavicle -1.23988e-014 -3.23025e-016
rhumerus -42.3851 7.67759 -91.3459
rradius 35.7065
rwrist 15.2161
rhand -1.68739 -55.8719
rfingers 7.12502
rthumb 23.9732 -84.3951
lclavicle -1.23988e-014 -3.23025e-016
lhumerus -49.802 -2.86643 90.5596
lradius 38.9055
lwrist -3.75808
lhand -7.61412 -33.8024
lfingers 7.12502
lthumb 18.2801 -4.64132
rfemur -13.2637 7.45839 21.239
rtibia 38.1755
rfoot -25.3742 -21.713
rtoes 2.60634
lfemur -7.86755 -19.7666 -29.5904
ltibia 27.2902
lfoot -27.4376 21.2639
ltoes -13.2333
26
root 7.77513 15.0685 42.0209 -178.692 1.67235 -180.836
lowerback 7.28792 1.28943 -0.682603
upperback -3.56135 1.67503 -0.318417
thorax -7.85022 0.862973 -0.18823
lowerneck -3.91461 -2.02422 -5.44632
upperneck 5.74345 -2.72575 4.82068
head 2.70111 -1.35521 2.43768
rclavicle -2.19171e-014 2.88859e-016
rhumerus -42.1877 7.3891 -91.1151
rradius 35.657
rwrist 15.2449
rhand -1.65312 -54.8282
rfingers 7.12502
rthumb 24.0061 -83.347
lclavicle -2.19171e-014 2.88859e-016
lhumerus -49.7807 -2.64298 90.1905
lradius 39.1021
lwrist -2.59084
lhand -6.78397 -33.6102
lfingers 7.12502
lthumb 19.0786 -4.52596
rfemur -13.9902 6.94098 20.8671
rtibia 39.4407
rfoot -25.3701 -21.4024
rtoes 1.57218
lfemur -7.66963 -19.615 -29.8791
ltibia 26.7912
lfoot -27.1112 21.2529
ltoes -15.1129
27
root 7.75802 15.076 42.0103 -178.421 2.01429 -181.064
lowerback 7.05088 1.40834 -0.922369
upperback -3.5445 1.81019 -0.373181
thorax -7.70105 0.941074 -0.123428
lowerneck -3.82132 -2.0405 -5.46463
upperneck 5.30898 -2.7329 4.88143
head 2.54029 -1.35354 2.4586
rclavicle -2.11644e-014 5.26158e-015
rhumerus -41.8625 7.07268 -90.8056
rradius 35.5798
rwrist 15.4755
rhand -1.09763 -54.5908
rfingers 7.12502
rthumb 24.5386 -83.0385
lclavicle -2.11644e-014 5.26158e-015
lhumerus -49.5895 -2.33079 89.8879
lradius 38.8652
lwrist -2.1405
lhand -9.49353 -34.074
lfingers 7.12502
lthumb 16.4713 -4.75322
rfemur -15.0355 6.71875 20.4649
rtibia 40.7026
rfoot -25.0654 -21.1611
rtoes 0.25675
lfemur -7.67398 -19.5047 -30.1332
ltibia 26.2478
lfoot -26.9648 21.4955
ltoes -16.2195
28
root 7.74083 15.0796 41.9985 -178.226 2.65915 -181.291
lowerback 6.90157 1.62758 -1.14058
upperback -3.53542 2.08133 -0.435339
thorax -7.61267 1.08403 -0.0986624
lowerneck -3.76695 -2.04326 -5.51645
upperneck 5.00235 -2.72651 4.96724
head 2.43085 -1.34661 2.49562
rclavicle -1.91051e-014 -3.35449e-016
rhumerus -41.6293 6.7088 -90.5259
rradius 35.4382
rwrist 15.5874
rhand -0.638662 -54.9935
rfingers 7.12502
rthumb 24.9785 -83.3807
lclavicle -1.91051e-014 -3.35449e-016
lhumerus -49.3789 -1.98844 89.5097
lradius 38.8407
lwrist -1.07478
lhand -7.27892 -32.7067
lfingers 7.12502
lthumb 18.6025 -3.57622
rfemur -16.0995 6.75861 20.0564
rtibia 41.9842
rfoot -24.5594 -20.6086
rtoes 0.1304
lfemur -7.6061 -19.45 -30.4632
ltibia 25.7305
lfoot -26.8284 22.1013
ltoes -15.4848
29
root 7.72901 15.0847 41.9773 -178.36 2.22847 -181.487
lowerback 6.99066 1.48351 -1.27559
upperback -3.45343 1.86839 -0.465474
thorax -7.57795 0.983984 -0.0267144
lowerneck -3.77576 -2.01539 -5.48409
upperneck 4.88152 -2.67816 4.87872
head 2.38641 -1.32224 2.46057
rclavicle 2.35568e-014 -1.88845e-015
rhumerus -41.5772 6.4638 -90.3101
rradius 35.2
rwrist 15.3865
rhand -1.32791 -54.8245
rfingers 7.12502
rthumb 24.3179 -83.3019
lclavicle 2.35568e-014 -1.88845e-015
lhumerus -49.3535 -1.68765 89.1894
lradius 38.4965
lwrist -1.06943
lhand -9.2915 -33.5738
lfingers 7.12502
lthumb 16.6658 -4.26928
rfemur -16.5121 6.13473 19.8504
rtibia 43.2303
rfoot -24.4602 -20.399
rtoes 0.968858
lfemur -7.12563 -19.4777 -30.7851
ltibia 25.2808
lfoot -26.4218 22.011
ltoes -15.8853
30
root 7.71508 15.0852 41.9646 -178.421 2.34924 -181.576
lowerback 7.10765 1.48725 -1.32313
upperback -3.42335 1.86428 -0.473205
thorax -7.61498 0.983123 -0.0103571
lowerneck -3.69206 -1.96247 -5.3522
upperneck 4.70934 -2.5959 4.63634
head 2.30005 -1.28354 2.35637
rclavicle -2.29581e-014 3.08116e-015
rhumerus -41.4491 6.13155 -90.0571
rradius 34.7489
rwrist 15.4681
rhand -1.90611 -54.4062
rfingers 7.12502
rthumb 23.7634 -82.9568
lclavicle -2.29581e-014 3.08116e-015
lhumerus -49.3027 -1.10388 88.656
lradius 38.153
lwrist -1.16258
lhand -9.56607 -33.9126
lfingers 7.12502
lthumb 16.4015 -4.58604
rfemur -17.1703 5.8098 19.7067
rtibia 44.4625
rfoot -24.2 -20.3621
rtoes 0.952693
lfemur -6.81404 -19.2546 -30.9914
ltibia 24.9258
lfoot -26.1505 22.1254
ltoes -16.7372
